<?xml version="1.0" encoding="UTF-8"?> <svg xmlns="http://www.w3.org/2000/svg" width="137.438" height="134.454" viewBox="0 0 137.438 134.454"><g id="Group_3160" data-name="Group 3160" transform="translate(0 0)"><g id="Group_2371" data-name="Group 2371" transform="translate(0 0)"><g id="Group_2366" data-name="Group 2366" transform="translate(0.084 0)"><g id="Group_2361" data-name="Group 2361" transform="translate(0 0.625)"><path id="Path_1183" data-name="Path 1183" d="M78.184,349.044l-1.1-2.531H71.591L70.5,349.044H69l4.629-10.419h1.489l4.613,10.419Zm-6.028-3.825h4.376l-2.2-5.06Z" transform="translate(-69.001 -338.536)" fill="#fff"></path><path id="Path_1184" data-name="Path 1184" d="M94.527,349.044l-2.069-3.275q-.358.03-.581.03H89.229v3.245H87.8V338.625h4.078a4.593,4.593,0,0,1,3.058.916,3.217,3.217,0,0,1,1.079,2.6,3.69,3.69,0,0,1-.588,2.128,3.294,3.294,0,0,1-1.689,1.25l2.426,3.528ZM91.878,344.5a3.157,3.157,0,0,0,2.054-.588,2.115,2.115,0,0,0,.715-1.734,2.034,2.034,0,0,0-.715-1.689,3.214,3.214,0,0,0-2.054-.573H89.229V344.5Z" transform="translate(-75.551 -338.536)" fill="#fff"></path><path id="Path_1185" data-name="Path 1185" d="M109.983,340.1a4.009,4.009,0,0,0-5.1,1.637,4.046,4.046,0,0,0,0,4.026,3.991,3.991,0,0,0,3.483,1.994,4.075,4.075,0,0,0,1.607-.335,4.634,4.634,0,0,0,1.4-.915l.863.938a5.792,5.792,0,0,1-1.831,1.213,5.468,5.468,0,0,1-4.836-.268,5.256,5.256,0,0,1-2.664-4.621,5.128,5.128,0,0,1,.722-2.672,5.219,5.219,0,0,1,1.972-1.912,5.549,5.549,0,0,1,2.753-.7,5.614,5.614,0,0,1,2.106.409,5.2,5.2,0,0,1,1.764,1.153l-.848,1.027A4.306,4.306,0,0,0,109.983,340.1Z" transform="translate(-80.813 -338.489)" fill="#fff"></path></g><g id="Group_2362" data-name="Group 2362" transform="translate(36.389 0.625)"><path id="Path_1186" data-name="Path 1186" d="M131.934,340.1a4.009,4.009,0,0,0-5.1,1.637,4.051,4.051,0,0,0,0,4.026,3.991,3.991,0,0,0,3.483,1.994,4.072,4.072,0,0,0,1.607-.335,4.633,4.633,0,0,0,1.4-.915l.863.938a5.8,5.8,0,0,1-1.83,1.213,5.469,5.469,0,0,1-4.837-.268,5.256,5.256,0,0,1-2.664-4.621,5.128,5.128,0,0,1,.722-2.672,5.217,5.217,0,0,1,1.972-1.912,5.545,5.545,0,0,1,2.753-.7,5.617,5.617,0,0,1,2.106.409,5.206,5.206,0,0,1,1.764,1.153l-.849,1.027A4.306,4.306,0,0,0,131.934,340.1Z" transform="translate(-124.85 -338.489)" fill="#fff"></path><path id="Path_1187" data-name="Path 1187" d="M147.171,343.543a4.423,4.423,0,0,1,.938,3c0,.2-.005.347-.016.447h-6.221a2.679,2.679,0,0,0,.886,1.682,2.621,2.621,0,0,0,1.778.625,3.324,3.324,0,0,0,1.3-.253,3.135,3.135,0,0,0,1.05-.715l.758.789a3.991,3.991,0,0,1-1.4.968,4.665,4.665,0,0,1-1.816.342,4.182,4.182,0,0,1-2.062-.5,3.5,3.5,0,0,1-1.4-1.406,4.527,4.527,0,0,1,0-4.13,3.633,3.633,0,0,1,1.392-1.414,4.016,4.016,0,0,1,2.039-.513A3.468,3.468,0,0,1,147.171,343.543Zm-.312,2.374a2.282,2.282,0,0,0-2.441-2.307,2.492,2.492,0,0,0-1.734.625,2.622,2.622,0,0,0-.826,1.682Z" transform="translate(-130.294 -339.874)" fill="#fff"></path><path id="Path_1188" data-name="Path 1188" d="M161.642,343.274a3.081,3.081,0,0,1,.789,2.24v4.867h-1.385v-4.5a1.935,1.935,0,0,0-2.1-2.114,2.376,2.376,0,0,0-1.719.678,2.66,2.66,0,0,0-.751,1.719v4.212h-1.385v-7.873h1.385v1.667a3.04,3.04,0,0,1,2.991-1.712A2.891,2.891,0,0,1,161.642,343.274Z" transform="translate(-135.388 -339.874)" fill="#fff"></path><path id="Path_1189" data-name="Path 1189" d="M173.928,348.9a3.393,3.393,0,0,1-1.846.58,2.1,2.1,0,0,1-1.518-.558,2.242,2.242,0,0,1-.581-1.69v-4.36h-1.116v-1.057h1.116V339.7h1.4v2.113h2.411v1.057h-2.411v4.108a1.456,1.456,0,0,0,.238.937.88.88,0,0,0,.715.284,2.5,2.5,0,0,0,1.22-.373Z" transform="translate(-140.188 -338.911)" fill="#fff"></path><path id="Path_1190" data-name="Path 1190" d="M181.7,342.917a3.28,3.28,0,0,1,1.7-.454v1.34a2.532,2.532,0,0,0-2.8,2.426v4.152h-1.385v-7.873H180.6v1.7A2.852,2.852,0,0,1,181.7,342.917Z" transform="translate(-143.793 -339.874)" fill="#fff"></path><path id="Path_1191" data-name="Path 1191" d="M193.449,343.543a4.423,4.423,0,0,1,.938,3c0,.2-.005.347-.015.447h-6.22a2.681,2.681,0,0,0,.885,1.682,2.621,2.621,0,0,0,1.778.625,3.33,3.33,0,0,0,1.3-.253,3.129,3.129,0,0,0,1.049-.715l.759.789a3.988,3.988,0,0,1-1.4.968,4.657,4.657,0,0,1-1.815.342,4.178,4.178,0,0,1-2.062-.5,3.5,3.5,0,0,1-1.4-1.406,4.527,4.527,0,0,1,0-4.13,3.634,3.634,0,0,1,1.392-1.414,4.015,4.015,0,0,1,2.038-.513A3.469,3.469,0,0,1,193.449,343.543Zm-.312,2.374a2.282,2.282,0,0,0-2.441-2.307,2.493,2.493,0,0,0-1.734.625,2.628,2.628,0,0,0-.826,1.682Z" transform="translate(-146.42 -339.874)" fill="#fff"></path></g><g id="Group_2363" data-name="Group 2363" transform="translate(89.371)"><path id="Path_1192" data-name="Path 1192" d="M212.307,342.969a3.635,3.635,0,0,1,1.429,1.407,4.08,4.08,0,0,1,.513,2.061,4.126,4.126,0,0,1-.513,2.069,3.627,3.627,0,0,1-1.429,1.414,4.606,4.606,0,0,1-4.2,0,3.641,3.641,0,0,1-1.429-1.407,4.423,4.423,0,0,1,0-4.137,3.64,3.64,0,0,1,1.429-1.407,4.6,4.6,0,0,1,4.2,0Zm-3.468,1.057a2.471,2.471,0,0,0-.938.989,3.031,3.031,0,0,0-.334,1.437,3.107,3.107,0,0,0,.334,1.459,2.4,2.4,0,0,0,.938.989,2.685,2.685,0,0,0,1.377.35,2.656,2.656,0,0,0,1.362-.35,2.4,2.4,0,0,0,.938-.989,3.1,3.1,0,0,0,.335-1.459,3.024,3.024,0,0,0-.335-1.437,2.467,2.467,0,0,0-.938-.989,2.622,2.622,0,0,0-1.362-.357A2.651,2.651,0,0,0,208.839,344.026Z" transform="translate(-206.168 -339.249)" fill="#fff"></path><path id="Path_1193" data-name="Path 1193" d="M223.052,339.092a1.209,1.209,0,0,0-.356.938v1.027h2.173v1.057H222.7v6.549h-1.384v-6.549h-1.028v-1.057h1.028v-.848a2.775,2.775,0,0,1,.364-1.466,2.375,2.375,0,0,1,.96-.908,2.77,2.77,0,0,1,1.28-.3,3.056,3.056,0,0,1,1.369.357l-.328,1.131a2.373,2.373,0,0,0-1.011-.253A1.275,1.275,0,0,0,223.052,339.092Z" transform="translate(-211.087 -337.53)" fill="#fff"></path></g><g id="Group_2364" data-name="Group 2364" transform="translate(1.444 17.453)"><path id="Path_1194" data-name="Path 1194" d="M71.217,365.275H78.45v1.295h-5.8v3.215H77.84v1.295H72.645V374.4h5.983v1.295H71.217Z" transform="translate(-71.217 -364.65)" fill="#fff"></path><path id="Path_1195" data-name="Path 1195" d="M84.454,369.181h1.607l1.949,2.888,1.979-2.888h1.532l-2.589,3.84,2.783,4.033H90.094l-2.084-3.1-2.188,3.1H84.26l2.828-4.033Z" transform="translate(-75.762 -366.011)" fill="#fff"></path><path id="Path_1196" data-name="Path 1196" d="M100.574,370.348a2.741,2.741,0,0,0-1.377.343,2.433,2.433,0,0,0-.945.968,2.952,2.952,0,0,0-.342,1.444,3.01,3.01,0,0,0,.334,1.444,2.474,2.474,0,0,0,.923.975,2.588,2.588,0,0,0,1.347.349,3.539,3.539,0,0,0,1.369-.253,2.6,2.6,0,0,0,1.013-.729l.788.8a3.488,3.488,0,0,1-1.362,1.027,4.666,4.666,0,0,1-1.867.356,4.062,4.062,0,0,1-2.039-.506,3.585,3.585,0,0,1-1.392-1.407,4.184,4.184,0,0,1-.5-2.061,4.229,4.229,0,0,1,.5-2.069,3.577,3.577,0,0,1,1.392-1.414,4.068,4.068,0,0,1,2.039-.506,5.007,5.007,0,0,1,1.794.3,3.479,3.479,0,0,1,1.332.886l-.759.953A3.118,3.118,0,0,0,100.574,370.348Z" transform="translate(-80.036 -365.988)" fill="#fff"></path><path id="Path_1197" data-name="Path 1197" d="M115.535,370.192a4.421,4.421,0,0,1,.938,3c0,.2-.005.347-.015.446h-6.22a2.681,2.681,0,0,0,.885,1.682,2.618,2.618,0,0,0,1.778.625,3.331,3.331,0,0,0,1.3-.253,3.123,3.123,0,0,0,1.049-.714l.76.789a4.008,4.008,0,0,1-1.4.967,4.653,4.653,0,0,1-1.816.342,4.177,4.177,0,0,1-2.061-.5,3.5,3.5,0,0,1-1.4-1.406,4.222,4.222,0,0,1-.5-2.069,4.178,4.178,0,0,1,.5-2.062,3.622,3.622,0,0,1,1.391-1.414,4.014,4.014,0,0,1,2.039-.513A3.468,3.468,0,0,1,115.535,370.192Zm-.312,2.374a2.282,2.282,0,0,0-2.441-2.307,2.493,2.493,0,0,0-1.734.624,2.629,2.629,0,0,0-.827,1.683Z" transform="translate(-84.326 -365.988)" fill="#fff"></path><path id="Path_1198" data-name="Path 1198" d="M123.571,364.316h1.385v11.043h-1.385Z" transform="translate(-89.46 -364.316)" fill="#fff"></path><path id="Path_1199" data-name="Path 1199" d="M130.081,364.316h1.384v11.043h-1.384Z" transform="translate(-91.728 -364.316)" fill="#fff"></path><path id="Path_1200" data-name="Path 1200" d="M141.987,370.192a4.424,4.424,0,0,1,.937,3c0,.2-.005.347-.014.446h-6.221a2.681,2.681,0,0,0,.885,1.682,2.618,2.618,0,0,0,1.778.625,3.331,3.331,0,0,0,1.3-.253,3.13,3.13,0,0,0,1.049-.714l.759.789a4,4,0,0,1-1.4.967,4.651,4.651,0,0,1-1.816.342,4.178,4.178,0,0,1-2.061-.5,3.509,3.509,0,0,1-1.4-1.406,4.228,4.228,0,0,1-.5-2.069,4.184,4.184,0,0,1,.5-2.062,3.635,3.635,0,0,1,1.392-1.414,4.009,4.009,0,0,1,2.039-.513A3.468,3.468,0,0,1,141.987,370.192Zm-.313,2.374a2.282,2.282,0,0,0-2.441-2.307,2.5,2.5,0,0,0-1.734.624,2.629,2.629,0,0,0-.826,1.683Z" transform="translate(-93.543 -365.988)" fill="#fff"></path><path id="Path_1201" data-name="Path 1201" d="M156.457,369.924a3.076,3.076,0,0,1,.788,2.239v4.867h-1.384v-4.494a1.934,1.934,0,0,0-2.1-2.114,2.377,2.377,0,0,0-1.719.678,2.658,2.658,0,0,0-.752,1.718v4.212h-1.384v-7.874h1.384v1.667a3.04,3.04,0,0,1,2.992-1.712A2.891,2.891,0,0,1,156.457,369.924Z" transform="translate(-98.637 -365.988)" fill="#fff"></path><path id="Path_1202" data-name="Path 1202" d="M167.822,370.348a2.743,2.743,0,0,0-1.377.343,2.428,2.428,0,0,0-.945.968,2.953,2.953,0,0,0-.342,1.444,3.026,3.026,0,0,0,.334,1.444,2.477,2.477,0,0,0,.923.975,2.592,2.592,0,0,0,1.348.349,3.539,3.539,0,0,0,1.368-.253,2.61,2.61,0,0,0,1.013-.729l.789.8a3.494,3.494,0,0,1-1.362,1.027,4.666,4.666,0,0,1-1.867.356,4.062,4.062,0,0,1-2.039-.506,3.581,3.581,0,0,1-1.392-1.407,4.192,4.192,0,0,1-.5-2.061,4.237,4.237,0,0,1,.5-2.069,3.572,3.572,0,0,1,1.392-1.414,4.069,4.069,0,0,1,2.039-.506,5,5,0,0,1,1.793.3,3.486,3.486,0,0,1,1.332.886l-.759.953A3.119,3.119,0,0,0,167.822,370.348Z" transform="translate(-103.468 -365.988)" fill="#fff"></path><path id="Path_1203" data-name="Path 1203" d="M182.782,370.192a4.425,4.425,0,0,1,.938,3c0,.2-.005.347-.016.446h-6.22a2.681,2.681,0,0,0,.885,1.682,2.617,2.617,0,0,0,1.778.625,3.331,3.331,0,0,0,1.3-.253,3.132,3.132,0,0,0,1.05-.714l.758.789a4,4,0,0,1-1.4.967,4.651,4.651,0,0,1-1.816.342,4.181,4.181,0,0,1-2.061-.5,3.5,3.5,0,0,1-1.4-1.406,4.222,4.222,0,0,1-.5-2.069,4.178,4.178,0,0,1,.5-2.062,3.624,3.624,0,0,1,1.392-1.414,4.008,4.008,0,0,1,2.038-.513A3.467,3.467,0,0,1,182.782,370.192Zm-.312,2.374a2.282,2.282,0,0,0-2.441-2.307,2.493,2.493,0,0,0-1.734.624,2.622,2.622,0,0,0-.826,1.683Z" transform="translate(-107.758 -365.988)" fill="#fff"></path></g><g id="Group_2365" data-name="Group 2365" transform="translate(82.436 17.363)"><path id="Path_1204" data-name="Path 1204" d="M198.292,365.742a1.206,1.206,0,0,0-.357.937v1.027h2.173v1.057h-2.173v6.549h-1.385v-6.549h-1.027v-1.057h1.027v-.848a2.785,2.785,0,0,1,.364-1.466,2.374,2.374,0,0,1,.96-.908,2.766,2.766,0,0,1,1.28-.3,3.059,3.059,0,0,1,1.368.357l-.327,1.131a2.382,2.382,0,0,0-1.011-.253A1.271,1.271,0,0,0,198.292,365.742Z" transform="translate(-195.524 -364.179)" fill="#fff"></path><path id="Path_1205" data-name="Path 1205" d="M209.224,369.619a3.64,3.64,0,0,1,1.429,1.407,4.083,4.083,0,0,1,.513,2.061,4.125,4.125,0,0,1-.513,2.069,3.624,3.624,0,0,1-1.429,1.414,4.607,4.607,0,0,1-4.2,0,3.64,3.64,0,0,1-1.429-1.407,4.425,4.425,0,0,1,0-4.137,3.644,3.644,0,0,1,1.429-1.407,4.606,4.606,0,0,1,4.2,0Zm-3.468,1.057a2.472,2.472,0,0,0-.938.99,3.029,3.029,0,0,0-.335,1.437,3.1,3.1,0,0,0,.335,1.458,2.411,2.411,0,0,0,.938.99,2.692,2.692,0,0,0,1.377.35,2.662,2.662,0,0,0,1.362-.35,2.4,2.4,0,0,0,.938-.99,3.094,3.094,0,0,0,.335-1.458,3.021,3.021,0,0,0-.335-1.437,2.464,2.464,0,0,0-.938-.99,2.622,2.622,0,0,0-1.362-.357A2.651,2.651,0,0,0,205.756,370.676Z" transform="translate(-198.159 -365.898)" fill="#fff"></path><path id="Path_1206" data-name="Path 1206" d="M220.943,369.567a3.276,3.276,0,0,1,1.7-.454v1.339a2.533,2.533,0,0,0-2.8,2.426v4.152h-1.384v-7.874h1.384v1.7A2.853,2.853,0,0,1,220.943,369.567Z" transform="translate(-203.515 -365.898)" fill="#fff"></path></g></g><g id="Group_2370" data-name="Group 2370" transform="translate(0 36.464)"><g id="Group_2367" data-name="Group 2367"><path id="Path_1207" data-name="Path 1207" d="M77.757,404.871l-.818-2.024H72.117l-.818,2.024H68.872L73.4,394.453h2.426l4.449,10.418Zm-4.866-3.915H76.18l-1.637-4.048Z" transform="translate(-68.872 -393.828)" fill="#fff"></path><path id="Path_1208" data-name="Path 1208" d="M94.9,398.154v8.007H92.621v-1.414a2.817,2.817,0,0,1-2.679,1.5,2.761,2.761,0,0,1-2.106-.826,3.126,3.126,0,0,1-.781-2.24v-5.03h2.292v4.375a1.684,1.684,0,0,0,.4,1.191,1.433,1.433,0,0,0,1.1.431,1.643,1.643,0,0,0,1.294-.581,2.185,2.185,0,0,0,.477-1.458v-3.959Z" transform="translate(-75.208 -395.118)" fill="#fff"></path><path id="Path_1209" data-name="Path 1209" d="M107.046,404.727a3.712,3.712,0,0,1-.99.409,4.31,4.31,0,0,1-1.094.141,2.586,2.586,0,0,1-1.815-.639,2.357,2.357,0,0,1-.7-1.831V399.1h-1.116v-1.577h1.116v-2.2h2.277v2.2H106.9v1.592h-2.173v3.3q0,.924.729.923a2.572,2.572,0,0,0,1.116-.3Z" transform="translate(-80.182 -394.131)" fill="#fff"></path><path id="Path_1210" data-name="Path 1210" d="M117.626,398.545a3.658,3.658,0,0,1,1.511,1.428,4.542,4.542,0,0,1,0,4.279,3.688,3.688,0,0,1-1.511,1.443,5.168,5.168,0,0,1-4.494,0,3.68,3.68,0,0,1-1.511-1.443,4.542,4.542,0,0,1,0-4.279,3.65,3.65,0,0,1,1.511-1.428,5.241,5.241,0,0,1,4.494,0Zm-3.691,2.009a2.552,2.552,0,0,0,0,3.185,2.013,2.013,0,0,0,2.887,0,2.55,2.55,0,0,0,0-3.185,2.012,2.012,0,0,0-2.887,0Z" transform="translate(-83.581 -395.078)" fill="#fff"></path><path id="Path_1211" data-name="Path 1211" d="M139.3,398.842a3.127,3.127,0,0,1,.781,2.24v5.031H137.8v-4.361a1.663,1.663,0,0,0-.417-1.2,1.5,1.5,0,0,0-1.131-.432,1.644,1.644,0,0,0-1.295.581,2.188,2.188,0,0,0-.476,1.459v3.959h-2.277v-4.361a1.69,1.69,0,0,0-.409-1.2,1.462,1.462,0,0,0-1.123-.439,1.667,1.667,0,0,0-1.3.581,2.164,2.164,0,0,0-.483,1.459v3.959H126.6v-8.007h2.292v1.384a3.241,3.241,0,0,1,4.42-.99,2.627,2.627,0,0,1,1,1.362,2.9,2.9,0,0,1,1.124-1.37,3.36,3.36,0,0,1,1.764-.476A2.762,2.762,0,0,1,139.3,398.842Z" transform="translate(-88.985 -395.07)" fill="#fff"></path><path id="Path_1212" data-name="Path 1212" d="M154.636,406.113v-.938a2.568,2.568,0,0,1-1.041.774,3.8,3.8,0,0,1-1.474.268,2.835,2.835,0,0,1-2.009-.692,2.353,2.353,0,0,1-.744-1.808,2.127,2.127,0,0,1,.8-1.764,3.606,3.606,0,0,1,2.255-.647h2.2v-.149a1.211,1.211,0,0,0-.424-.99,1.911,1.911,0,0,0-1.243-.349,4.95,4.95,0,0,0-2.381.7l-.714-1.577a9.574,9.574,0,0,1,1.786-.7,7.053,7.053,0,0,1,1.831-.223,3.717,3.717,0,0,1,2.493.759,2.676,2.676,0,0,1,.9,2.114l.016,5.224Zm-.64-1.875a1.339,1.339,0,0,0,.625-.863v-.715h-1.8a1.8,1.8,0,0,0-.989.216.775.775,0,0,0-.321.693.907.907,0,0,0,.335.736,1.4,1.4,0,0,0,.915.276A2.205,2.205,0,0,0,154,404.238Z" transform="translate(-96.921 -395.07)" fill="#fff"></path><path id="Path_1213" data-name="Path 1213" d="M168.492,404.727a3.716,3.716,0,0,1-.99.409,4.317,4.317,0,0,1-1.094.141,2.584,2.584,0,0,1-1.815-.639,2.355,2.355,0,0,1-.7-1.831V399.1h-1.115v-1.577h1.115v-2.2h2.278v2.2h2.173v1.592H166.17v3.3q0,.924.729.923a2.574,2.574,0,0,0,1.116-.3Z" transform="translate(-101.593 -394.131)" fill="#fff"></path><path id="Path_1214" data-name="Path 1214" d="M179.592,399.155a4.483,4.483,0,0,1,1,3.111q0,.357-.014.551h-5.745a2.032,2.032,0,0,0,2.068,1.607,2.81,2.81,0,0,0,1.087-.216,2.874,2.874,0,0,0,.938-.632l1.2,1.22a4.055,4.055,0,0,1-1.48,1.049,4.988,4.988,0,0,1-1.943.365,4.609,4.609,0,0,1-2.209-.506,3.543,3.543,0,0,1-1.459-1.429,4.685,4.685,0,0,1,.007-4.279,3.649,3.649,0,0,1,1.459-1.443,4.386,4.386,0,0,1,2.143-.514A3.75,3.75,0,0,1,179.592,399.155Zm-1.153,2.307a1.814,1.814,0,0,0-.507-1.265,1.709,1.709,0,0,0-1.265-.476,1.742,1.742,0,0,0-1.243.469,2.174,2.174,0,0,0-.633,1.273Z" transform="translate(-104.991 -395.078)" fill="#fff"></path><path id="Path_1215" data-name="Path 1215" d="M194.754,393.494v11.043h-2.277v-1.176a2.831,2.831,0,0,1-1.072.945,3.214,3.214,0,0,1-1.459.32,3.783,3.783,0,0,1-1.987-.514,3.441,3.441,0,0,1-1.325-1.45,4.764,4.764,0,0,1-.469-2.159,4.707,4.707,0,0,1,.461-2.128,3.388,3.388,0,0,1,1.31-1.429,3.735,3.735,0,0,1,1.949-.506,2.975,2.975,0,0,1,2.59,1.265v-4.211Zm-2.836,8.669a2.571,2.571,0,0,0,0-3.2,2,2,0,0,0-2.887,0,2.519,2.519,0,0,0,0,3.2,2,2,0,0,0,2.887,0Z" transform="translate(-109.743 -393.494)" fill="#fff"></path></g><g id="Group_2368" data-name="Group 2368" transform="translate(1.19 16.842)"><path id="Path_1216" data-name="Path 1216" d="M77.963,421.765A4.8,4.8,0,0,1,79.9,423.61a5.241,5.241,0,0,1,.693,2.7,5.158,5.158,0,0,1-.707,2.7,4.891,4.891,0,0,1-1.972,1.846,6.14,6.14,0,0,1-2.888.662H70.7V421.1H75.12A5.985,5.985,0,0,1,77.963,421.765Zm-1.228,7.367a2.844,2.844,0,0,0,1.079-1.139,3.5,3.5,0,0,0,.387-1.667,3.429,3.429,0,0,0-.409-1.682,2.943,2.943,0,0,0-1.116-1.153,3.134,3.134,0,0,0-1.6-.41H73.051v6.46h2.128A3,3,0,0,0,76.734,429.132Z" transform="translate(-70.699 -419.956)" fill="#fff"></path><path id="Path_1217" data-name="Path 1217" d="M94.208,425.805a4.483,4.483,0,0,1,1,3.111c0,.238-.005.422-.015.55H89.453a2.034,2.034,0,0,0,2.069,1.607,2.819,2.819,0,0,0,1.086-.216,2.867,2.867,0,0,0,.938-.633l1.206,1.22a4.052,4.052,0,0,1-1.481,1.049,4.984,4.984,0,0,1-1.942.365,4.621,4.621,0,0,1-2.21-.506,3.544,3.544,0,0,1-1.458-1.43,4.678,4.678,0,0,1,.007-4.278,3.643,3.643,0,0,1,1.459-1.444,4.387,4.387,0,0,1,2.143-.513A3.751,3.751,0,0,1,94.208,425.805Zm-1.154,2.307a1.815,1.815,0,0,0-.506-1.266,1.712,1.712,0,0,0-1.265-.476,1.74,1.74,0,0,0-1.243.469,2.172,2.172,0,0,0-.633,1.272Z" transform="translate(-76.43 -421.206)" fill="#fff"></path><path id="Path_1218" data-name="Path 1218" d="M105.024,426.638a1.828,1.828,0,0,0-1.406.588,2.2,2.2,0,0,0-.543,1.555,2.276,2.276,0,0,0,.536,1.57,1.751,1.751,0,0,0,1.37.6,2.066,2.066,0,0,0,1.86-.938l1.578,1.072A3.4,3.4,0,0,1,107,432.4a4.681,4.681,0,0,1-2.136.461,4.36,4.36,0,0,1-2.128-.506,3.581,3.581,0,0,1-1.436-1.43,4.3,4.3,0,0,1-.514-2.128,4.371,4.371,0,0,1,.514-2.15,3.6,3.6,0,0,1,1.443-1.444,4.381,4.381,0,0,1,2.151-.513,4.563,4.563,0,0,1,2.039.439,3.58,3.58,0,0,1,1.429,1.242l-1.548,1.116A2.186,2.186,0,0,0,105.024,426.638Z" transform="translate(-81.181 -421.206)" fill="#fff"></path><path id="Path_1219" data-name="Path 1219" d="M116.669,419.7a1.391,1.391,0,0,1,0,1.845,1.209,1.209,0,0,1-.9.357,1.171,1.171,0,0,1-.885-.365,1.379,1.379,0,0,1,0-1.837,1.184,1.184,0,0,1,.885-.358A1.208,1.208,0,0,1,116.669,419.7Zm-2.032,3.2h2.291v8.007h-2.291Z" transform="translate(-85.973 -419.343)" fill="#fff"></path><path id="Path_1220" data-name="Path 1220" d="M124.9,426.526a3.867,3.867,0,0,0-1.146-.2,1.308,1.308,0,0,0-.67.149.484.484,0,0,0-.253.446.551.551,0,0,0,.342.506,6.51,6.51,0,0,0,1.116.4,11.8,11.8,0,0,1,1.4.5,2.622,2.622,0,0,1,.953.729,1.934,1.934,0,0,1,.4,1.273,2.153,2.153,0,0,1-.915,1.852,3.9,3.9,0,0,1-2.344.663,6.183,6.183,0,0,1-1.89-.29,4.868,4.868,0,0,1-1.578-.826l.744-1.548a4.712,4.712,0,0,0,1.362.737,4.338,4.338,0,0,0,1.422.26,1.5,1.5,0,0,0,.737-.156.507.507,0,0,0,.275-.469.592.592,0,0,0-.35-.536,5.865,5.865,0,0,0-1.123-.417,11.243,11.243,0,0,1-1.362-.476,2.417,2.417,0,0,1-.93-.721,1.952,1.952,0,0,1-.387-1.258,2.155,2.155,0,0,1,.893-1.846,3.725,3.725,0,0,1,2.262-.655,6.006,6.006,0,0,1,1.637.231,5.473,5.473,0,0,1,1.489.662l-.789,1.563A6.688,6.688,0,0,0,124.9,426.526Z" transform="translate(-87.987 -421.19)" fill="#fff"></path><path id="Path_1221" data-name="Path 1221" d="M134.965,419.7a1.391,1.391,0,0,1,0,1.845,1.209,1.209,0,0,1-.9.357,1.173,1.173,0,0,1-.886-.365,1.381,1.381,0,0,1,0-1.837,1.187,1.187,0,0,1,.886-.358A1.207,1.207,0,0,1,134.965,419.7Zm-2.032,3.2h2.292v8.007h-2.292Z" transform="translate(-92.348 -419.343)" fill="#fff"></path><path id="Path_1222" data-name="Path 1222" d="M145.378,425.195a3.655,3.655,0,0,1,1.511,1.429,4.541,4.541,0,0,1,0,4.279,3.69,3.69,0,0,1-1.511,1.444,5.175,5.175,0,0,1-4.494,0,3.69,3.69,0,0,1-1.511-1.444,4.541,4.541,0,0,1,0-4.279,3.655,3.655,0,0,1,1.511-1.429,5.247,5.247,0,0,1,4.494,0Zm-3.691,2.009a2.552,2.552,0,0,0,0,3.185,2.014,2.014,0,0,0,2.888,0,2.552,2.552,0,0,0,0-3.185,2.014,2.014,0,0,0-2.888,0Z" transform="translate(-94.442 -421.206)" fill="#fff"></path><path id="Path_1223" data-name="Path 1223" d="M161.543,425.5a3.1,3.1,0,0,1,.8,2.233v5.03h-2.292V428.4a1.655,1.655,0,0,0-.423-1.2,1.533,1.533,0,0,0-1.154-.439,1.717,1.717,0,0,0-1.34.588,2.171,2.171,0,0,0-.491,1.466v3.944h-2.292v-8.007h2.292v1.4a3,3,0,0,1,2.768-1.489A2.815,2.815,0,0,1,161.543,425.5Z" transform="translate(-99.846 -421.197)" fill="#fff"></path><path id="Path_1224" data-name="Path 1224" d="M169.263,428.937H173.1v1.518h-3.839Z" transform="translate(-105.043 -422.686)" fill="#fff"></path><path id="Path_1225" data-name="Path 1225" d="M178.217,421.1h2.62l3.244,6.4,3.215-6.4h2.6V431.52h-2.114v-7.039l-2.961,5.983h-1.518l-2.977-5.983v7.039h-2.113Z" transform="translate(-108.163 -419.956)" fill="#fff"></path><path id="Path_1226" data-name="Path 1226" d="M203.928,432.762v-.938a2.566,2.566,0,0,1-1.041.773,3.784,3.784,0,0,1-1.474.268,2.835,2.835,0,0,1-2.009-.691,2.355,2.355,0,0,1-.744-1.809,2.128,2.128,0,0,1,.8-1.764,3.608,3.608,0,0,1,2.255-.647h2.2v-.149a1.21,1.21,0,0,0-.425-.99,1.914,1.914,0,0,0-1.243-.349,4.954,4.954,0,0,0-2.381.7l-.715-1.577a9.618,9.618,0,0,1,1.786-.7,7.078,7.078,0,0,1,1.831-.224,3.717,3.717,0,0,1,2.493.759,2.682,2.682,0,0,1,.9,2.114l.015,5.223Zm-.639-1.875a1.342,1.342,0,0,0,.625-.863v-.715h-1.8a1.8,1.8,0,0,0-.99.216.776.776,0,0,0-.321.693.906.906,0,0,0,.336.737,1.4,1.4,0,0,0,.915.276A2.2,2.2,0,0,0,203.289,430.887Z" transform="translate(-115.287 -421.197)" fill="#fff"></path><path id="Path_1227" data-name="Path 1227" d="M218.6,431.186l-1.934-3.26-1.028,1.087v2.173h-2.292V420.143h2.292v6.072l2.932-3.021h2.6l-2.932,3.081,3.066,4.911Z" transform="translate(-120.405 -419.622)" fill="#fff"></path><path id="Path_1228" data-name="Path 1228" d="M229.349,419.7a1.391,1.391,0,0,1,0,1.845,1.207,1.207,0,0,1-.9.357,1.175,1.175,0,0,1-.886-.365,1.383,1.383,0,0,1,0-1.837,1.189,1.189,0,0,1,.886-.358A1.205,1.205,0,0,1,229.349,419.7Zm-2.032,3.2h2.292v8.007h-2.292Z" transform="translate(-125.236 -419.343)" fill="#fff"></path><path id="Path_1229" data-name="Path 1229" d="M241.467,425.5a3.1,3.1,0,0,1,.8,2.233v5.03h-2.292V428.4a1.653,1.653,0,0,0-.425-1.2,1.531,1.531,0,0,0-1.153-.439,1.718,1.718,0,0,0-1.34.588,2.174,2.174,0,0,0-.491,1.466v3.944h-2.292v-8.007h2.292v1.4a3,3,0,0,1,2.768-1.489A2.818,2.818,0,0,1,241.467,425.5Z" transform="translate(-127.695 -421.197)" fill="#fff"></path><path id="Path_1230" data-name="Path 1230" d="M256.71,424.763v7.263a3.59,3.59,0,0,1-.536,1.972,3.5,3.5,0,0,1-1.5,1.295,5.2,5.2,0,0,1-2.232.455,6.111,6.111,0,0,1-1.868-.283,6.309,6.309,0,0,1-1.615-.773l.848-1.607a4.2,4.2,0,0,0,2.486.8,2.365,2.365,0,0,0,1.562-.483,1.607,1.607,0,0,0,.581-1.3v-.908a2.653,2.653,0,0,1-1.012.864,3.161,3.161,0,0,1-1.4.3,3.443,3.443,0,0,1-1.824-.484,3.258,3.258,0,0,1-1.235-1.362,4.471,4.471,0,0,1-.438-2.024,4.3,4.3,0,0,1,.438-1.987,3.243,3.243,0,0,1,1.235-1.332,3.486,3.486,0,0,1,1.824-.476,3.057,3.057,0,0,1,1.384.3,2.9,2.9,0,0,1,1.027.855v-1.086Zm-2.8,5.276a2.139,2.139,0,0,0,.521-1.5,2.168,2.168,0,0,0-.521-1.5,1.871,1.871,0,0,0-2.708,0,2.381,2.381,0,0,0-.008,3,1.9,1.9,0,0,0,2.716,0Z" transform="translate(-132.662 -421.206)" fill="#fff"></path></g><g id="Group_2369" data-name="Group 2369" transform="translate(0.521 34.206)"><path id="Path_1231" data-name="Path 1231" d="M74.94,459.412v-.938a2.565,2.565,0,0,1-1.042.774,3.789,3.789,0,0,1-1.473.268,2.833,2.833,0,0,1-2.009-.692,2.354,2.354,0,0,1-.744-1.808,2.125,2.125,0,0,1,.8-1.764,3.6,3.6,0,0,1,2.255-.647h2.2v-.149a1.209,1.209,0,0,0-.425-.99,1.912,1.912,0,0,0-1.243-.349,4.942,4.942,0,0,0-2.381.7l-.715-1.577a9.552,9.552,0,0,1,1.786-.7,7.045,7.045,0,0,1,1.83-.223,3.717,3.717,0,0,1,2.493.759,2.678,2.678,0,0,1,.9,2.114l.014,5.224Zm-.64-1.875a1.341,1.341,0,0,0,.625-.863v-.715h-1.8a1.8,1.8,0,0,0-.99.216.774.774,0,0,0-.32.692.9.9,0,0,0,.335.737,1.4,1.4,0,0,0,.915.276A2.206,2.206,0,0,0,74.3,457.537Z" transform="translate(-69.672 -447.848)" fill="#fff"></path><path id="Path_1232" data-name="Path 1232" d="M91.441,452.148a3.1,3.1,0,0,1,.8,2.233v5.031H89.945V455.05a1.654,1.654,0,0,0-.424-1.2,1.533,1.533,0,0,0-1.154-.438,1.713,1.713,0,0,0-1.339.588,2.173,2.173,0,0,0-.491,1.466v3.945H84.245V451.4h2.292v1.4a2.992,2.992,0,0,1,2.768-1.488A2.817,2.817,0,0,1,91.441,452.148Z" transform="translate(-74.75 -447.848)" fill="#fff"></path><path id="Path_1233" data-name="Path 1233" d="M107.086,446.792v11.044h-2.277V456.66a2.829,2.829,0,0,1-1.072.945,3.211,3.211,0,0,1-1.458.32,3.784,3.784,0,0,1-1.987-.513,3.444,3.444,0,0,1-1.325-1.45A4.764,4.764,0,0,1,98.5,453.8a4.707,4.707,0,0,1,.461-2.128,3.387,3.387,0,0,1,1.31-1.429,3.736,3.736,0,0,1,1.949-.506,2.972,2.972,0,0,1,2.59,1.265v-4.212Zm-2.836,8.67a2.571,2.571,0,0,0,0-3.2,2,2,0,0,0-2.887,0,2.521,2.521,0,0,0,0,3.2,2,2,0,0,0,2.887,0Z" transform="translate(-79.717 -446.271)" fill="#fff"></path><path id="Path_1234" data-name="Path 1234" d="M125.313,449.769a5.146,5.146,0,0,0-1.541-.291,1.808,1.808,0,0,0-.967.223.723.723,0,0,0-.357.655.917.917,0,0,0,.513.841,7.908,7.908,0,0,0,1.586.6,13.8,13.8,0,0,1,1.763.625,3.13,3.13,0,0,1,1.183.938,2.6,2.6,0,0,1,.491,1.652,2.828,2.828,0,0,1-.528,1.719,3.255,3.255,0,0,1-1.451,1.094,5.582,5.582,0,0,1-2.1.372,7.189,7.189,0,0,1-2.485-.446,6.711,6.711,0,0,1-2.114-1.22l.938-1.92a6.348,6.348,0,0,0,1.815,1.146,4.889,4.889,0,0,0,1.875.432,2.074,2.074,0,0,0,1.139-.268.936.936,0,0,0,.134-1.437,2.1,2.1,0,0,0-.7-.423c-.282-.109-.672-.233-1.168-.372a13.429,13.429,0,0,1-1.749-.6,3.072,3.072,0,0,1-1.168-.908,2.51,2.51,0,0,1-.491-1.622,2.756,2.756,0,0,1,.506-1.645,3.2,3.2,0,0,1,1.414-1.086,5.438,5.438,0,0,1,2.113-.38,7.335,7.335,0,0,1,2.114.312,7.171,7.171,0,0,1,1.845.833l-.908,1.95A7.926,7.926,0,0,0,125.313,449.769Z" transform="translate(-86.968 -446.502)" fill="#fff"></path><path id="Path_1235" data-name="Path 1235" d="M140.582,451.844a3.653,3.653,0,0,1,1.511,1.428,4.541,4.541,0,0,1,0,4.279A3.682,3.682,0,0,1,140.582,459a5.173,5.173,0,0,1-4.494,0,3.681,3.681,0,0,1-1.511-1.444,4.54,4.54,0,0,1,0-4.279,3.653,3.653,0,0,1,1.511-1.428,5.241,5.241,0,0,1,4.494,0Zm-3.691,2.009a2.551,2.551,0,0,0,0,3.184,2.013,2.013,0,0,0,2.888,0,2.551,2.551,0,0,0,0-3.184,2.012,2.012,0,0,0-2.888,0Z" transform="translate(-92.101 -447.856)" fill="#fff"></path><path id="Path_1236" data-name="Path 1236" d="M152.742,453.287a1.826,1.826,0,0,0-1.406.588,2.2,2.2,0,0,0-.543,1.555,2.276,2.276,0,0,0,.536,1.57,1.752,1.752,0,0,0,1.37.6,2.067,2.067,0,0,0,1.86-.938l1.577,1.073a3.389,3.389,0,0,1-1.422,1.309,4.675,4.675,0,0,1-2.135.461,4.356,4.356,0,0,1-2.129-.506,3.59,3.59,0,0,1-1.436-1.429,4.306,4.306,0,0,1-.513-2.129,4.378,4.378,0,0,1,.513-2.15,3.614,3.614,0,0,1,1.444-1.444,4.379,4.379,0,0,1,2.151-.513,4.563,4.563,0,0,1,2.039.439,3.585,3.585,0,0,1,1.429,1.243l-1.548,1.116A2.186,2.186,0,0,0,152.742,453.287Z" transform="translate(-97.139 -447.856)" fill="#fff"></path><path id="Path_1237" data-name="Path 1237" d="M164.387,446.35a1.391,1.391,0,0,1,0,1.845,1.2,1.2,0,0,1-.9.357,1.175,1.175,0,0,1-.886-.364,1.384,1.384,0,0,1,0-1.838,1.188,1.188,0,0,1,.886-.357A1.2,1.2,0,0,1,164.387,446.35Zm-2.032,3.2h2.292v8.007h-2.292Z" transform="translate(-101.931 -445.993)" fill="#fff"></path><path id="Path_1238" data-name="Path 1238" d="M175.32,452.454a4.489,4.489,0,0,1,1,3.111c0,.238-.005.422-.015.55h-5.745a2.033,2.033,0,0,0,2.069,1.607,2.812,2.812,0,0,0,1.087-.216,2.868,2.868,0,0,0,.937-.633l1.206,1.22a4.05,4.05,0,0,1-1.482,1.05,4.976,4.976,0,0,1-1.942.364A4.613,4.613,0,0,1,170.23,459a3.553,3.553,0,0,1-1.458-1.429,4.682,4.682,0,0,1,.008-4.279,3.649,3.649,0,0,1,1.458-1.444,4.39,4.39,0,0,1,2.143-.513A3.752,3.752,0,0,1,175.32,452.454Zm-1.154,2.307a1.813,1.813,0,0,0-.506-1.265,1.71,1.71,0,0,0-1.265-.476,1.744,1.744,0,0,0-1.243.469,2.178,2.178,0,0,0-.633,1.273Z" transform="translate(-104.024 -447.856)" fill="#fff"></path><path id="Path_1239" data-name="Path 1239" d="M187.5,458.026a3.748,3.748,0,0,1-.99.409,4.31,4.31,0,0,1-1.093.141,2.581,2.581,0,0,1-1.815-.64,2.353,2.353,0,0,1-.7-1.83V452.4H181.78v-1.578H182.9v-2.2h2.277v2.2h2.173v1.593h-2.173v3.3q0,.923.73.923a2.577,2.577,0,0,0,1.116-.3Z" transform="translate(-108.736 -446.908)" fill="#fff"></path><path id="Path_1240" data-name="Path 1240" d="M192.96,462.451a3.212,3.212,0,0,1-2.173-.773l.968-1.652a1.638,1.638,0,0,0,1.042.431,1.1,1.1,0,0,0,1.057-.715l.223-.446-3.319-7.843h2.367l2.1,5.506,1.889-5.506H199.4l-3.512,8.9A2.965,2.965,0,0,1,192.96,462.451Z" transform="translate(-111.864 -447.896)" fill="#fff"></path></g></g></g><g id="Group_2379" data-name="Group 2379" transform="translate(0.272 102.161)"><path id="Path_1248" data-name="Path 1248" d="M69.289,526.618V494.326h6.528V520.09h124.11V494.326h6.528v32.293Z" transform="translate(-69.289 -494.326)" fill="#fff"></path></g></g></svg> 